<?xml version="1.0" encoding="UTF-8"?>
<svg version="1.1" xmlns="http://www.w3.org/2000/svg" width="263" height="48">
<path d="M0 0 C5.19311129 3.1975052 9.13257125 7.88404935 11.9375 13.25 C13.42029517 21.81726096 13.57818592 30.11611963 8.5 37.5 C3.71878394 42.71042753 -0.80629863 46.1442796 -7.98828125 46.8359375 C-16.58348195 46.92373322 -23.00010874 46.79372094 -29.4609375 40.62890625 C-35.85016591 33.73114742 -36.98038584 28.29636848 -36.8046875 18.9453125 C-36.10939797 11.08319245 -32.45245981 6.95041296 -26.59765625 1.9453125 C-19.47839596 -2.95995064 -7.93446541 -3.52296499 0 0 Z " fill="#C5142D" transform="translate(36.5,1.5)"/>
<path d="M0 0 C1.051875 -0.00773438 2.10375 -0.01546875 3.1875 -0.0234375 C6 0.375 6 0.375 7.875 1.6484375 C9 3.375 9 3.375 9 7.375 C7.02 7.375 5.04 7.375 3 7.375 C2.67 6.715 2.34 6.055 2 5.375 C0.35 5.375 -1.3 5.375 -3 5.375 C-2.67 8.345 -2.34 11.315 -2 14.375 C-0.68 14.375 0.64 14.375 2 14.375 C2.33 13.715 2.66 13.055 3 12.375 C2.01 12.375 1.02 12.375 0 12.375 C0 11.385 0 10.395 0 9.375 C2.97 9.375 5.94 9.375 9 9.375 C9.36518465 15.82659555 9.36518465 15.82659555 7.86328125 18.08203125 C5.21291056 19.92117737 3.19687673 19.77350645 0 19.75 C-1.051875 19.75773437 -2.10375 19.76546875 -3.1875 19.7734375 C-6 19.375 -6 19.375 -7.8515625 18.2578125 C-9.55968996 15.45741306 -9.39696646 13.12603612 -9.375 9.875 C-9.38660156 8.15796875 -9.38660156 8.15796875 -9.3984375 6.40625 C-9 3.375 -9 3.375 -7.8515625 1.4921875 C-5.19155898 -0.11279353 -3.08543047 -0.02268699 0 0 Z " fill="#1B5091" transform="translate(69,5.625)"/>
<path d="M0 0 C5.94 0 11.88 0 18 0 C18.33 1.32 18.66 2.64 19 4 C17.35 4.33 15.7 4.66 14 5 C14 4.34 14 3.68 14 3 C10.7 3 7.4 3 4 3 C4 4.32 4 5.64 4 7 C4.99902344 6.98839844 5.99804688 6.97679687 7.02734375 6.96484375 C8.31769531 6.95582031 9.60804688 6.94679688 10.9375 6.9375 C12.22527344 6.92589844 13.51304687 6.91429687 14.83984375 6.90234375 C18 7 18 7 19 8 C19.0979057 9.49738124 19.12974864 10.99942892 19.125 12.5 C19.12886719 13.72203125 19.12886719 13.72203125 19.1328125 14.96875 C19 17 19 17 18 18 C16.58429877 18.08651611 15.164405 18.10704904 13.74609375 18.09765625 C12.89208984 18.09443359 12.03808594 18.09121094 11.15820312 18.08789062 C10.26037109 18.07951172 9.36253906 18.07113281 8.4375 18.0625 C7.53580078 18.05798828 6.63410156 18.05347656 5.70507812 18.04882812 C3.46998686 18.03700225 1.23502563 18.0205222 -1 18 C-1.33 16.35 -1.66 14.7 -2 13 C-0.35 13 1.3 13 3 13 C3 13.66 3 14.32 3 15 C6.63 15 10.26 15 14 15 C14 13.35 14 11.7 14 10 C9.38 10 4.76 10 0 10 C-1.36952673 7.26094655 -1.12621361 5.02912668 -1 2 C-0.67 1.34 -0.34 0.68 0 0 Z " fill="#F86F18" transform="translate(182,7)"/>
<path d="M0 0 C0.886875 -0.00257813 1.77375 -0.00515625 2.6875 -0.0078125 C5 0.125 5 0.125 7 1.125 C7.77811718 4.94484796 8.24386556 7.39340331 7 11.125 C3.67908998 12.83033217 1.81507216 13.125 -2 13.125 C-2 13.785 -2 14.445 -2 15.125 C1.3 15.125 4.6 15.125 8 15.125 C8 16.445 8 17.765 8 19.125 C2.72 19.125 -2.56 19.125 -8 19.125 C-8 12.125 -8 12.125 -6.9375 10.25 C-4.07886867 8.59014955 -1.25260697 8.43184971 2 8.125 C1.67 7.135 1.34 6.145 1 5.125 C0.34 5.125 -0.32 5.125 -1 5.125 C-1.33 6.115 -1.66 7.105 -2 8.125 C-3.98 8.125 -5.96 8.125 -8 8.125 C-7.74438677 5.7818787 -7.40729228 3.44656597 -7 1.125 C-4.51245214 -0.11877393 -2.77344699 -0.00806235 0 0 Z " fill="#1B5091" transform="translate(87,5.875)"/>
<path d="M0 0 C2.97922593 -0.02683987 5.95821295 -0.04676037 8.9375 -0.0625 C9.78763672 -0.07087891 10.63777344 -0.07925781 11.51367188 -0.08789062 C12.32255859 -0.09111328 13.13144531 -0.09433594 13.96484375 -0.09765625 C14.7137085 -0.10289307 15.46257324 -0.10812988 16.23413086 -0.11352539 C18 0 18 0 19 1 C19.0989294 3.16480797 19.129711 5.33293785 19.125 7.5 C19.12886719 9.27890625 19.12886719 9.27890625 19.1328125 11.09375 C19 14 19 14 18 15 C16.65732587 15.08631874 15.31025678 15.10706473 13.96484375 15.09765625 C13.15595703 15.09443359 12.34707031 15.09121094 11.51367188 15.08789062 C10.66353516 15.07951172 9.81339844 15.07113281 8.9375 15.0625 C8.08349609 15.05798828 7.22949219 15.05347656 6.34960938 15.04882812 C4.23304337 15.03700373 2.11651315 15.01906769 0 15 C-1.30459914 12.39080172 -1.1326594 10.41057385 -1.125 7.5 C-1.12757813 6.5203125 -1.13015625 5.540625 -1.1328125 4.53125 C-1 2 -1 2 0 0 Z M4 3 C4 5.97 4 8.94 4 12 C7.63 12 11.26 12 15 12 C15 9.03 15 6.06 15 3 C11.37 3 7.74 3 4 3 Z " fill="#F86F18" transform="translate(205,10)"/>
<path d="M0 0 C5.28 0 10.56 0 16 0 C16.33 1.65 16.66 3.3 17 5 C15.35 5.33 13.7 5.66 12 6 C12 5.01 12 4.02 12 3 C9.36 3 6.72 3 4 3 C4 5.97 4 8.94 4 12 C6.64 12 9.28 12 12 12 C12 11.01 12 10.02 12 9 C13.65 9 15.3 9 17 9 C17.042721 10.66611905 17.04063832 12.33382885 17 14 C16 15 16 15 12.40234375 15.09765625 C10.91403133 15.0909822 9.42573568 15.07902183 7.9375 15.0625 C6.79958008 15.05573242 6.79958008 15.05573242 5.63867188 15.04882812 C3.75908129 15.0370068 1.87953101 15.01907078 0 15 C-1.30459914 12.39080172 -1.1326594 10.41057385 -1.125 7.5 C-1.12757813 6.5203125 -1.13015625 5.540625 -1.1328125 4.53125 C-1 2 -1 2 0 0 Z " fill="#F86F18" transform="translate(138,10)"/>
<path d="M0 0 C1.32 0 2.64 0 4 0 C4 1.98 4 3.96 4 6 C7.3 6 10.6 6 14 6 C14 4.02 14 2.04 14 0 C15.65 0 17.3 0 19 0 C19 4.95 19 9.9 19 15 C17.35 15 15.7 15 14 15 C14 13.02 14 11.04 14 9 C10.7 9 7.4 9 4 9 C4 10.98 4 12.96 4 15 C2.68 15 1.36 15 0 15 C0 10.05 0 5.1 0 0 Z " fill="#F86F18" transform="translate(157,10)"/>
<path d="M0 0 C-2.45765035 7.91909556 -5.66818573 15.41985296 -9 23 C-9.29390625 22.38511719 -9.5878125 21.77023438 -9.890625 21.13671875 C-11.27404839 18.47216736 -12.65707747 16.88735426 -15 15 C-18.14481791 14.19684346 -18.14481791 14.19684346 -21 14 C-17.55130397 10.21527718 -13.61946841 7.54712094 -9.375 4.75 C-8.694375 4.29109375 -8.01375 3.8321875 -7.3125 3.359375 C-2.25344122 0 -2.25344122 0 0 0 Z " fill="#F8F0F1" transform="translate(36,9)"/>
<path d="M0 0 C5.28 0 10.56 0 16 0 C16 0.99 16 1.98 16 3 C12.04 3 8.08 3 4 3 C4 3.99 4 4.98 4 6 C6.31 6 8.62 6 11 6 C11 6.99 11 7.98 11 9 C8.69 9 6.38 9 4 9 C4 9.99 4 10.98 4 12 C7.96 12 11.92 12 16 12 C16 12.99 16 13.98 16 15 C10.72 15 5.44 15 0 15 C0 10.05 0 5.1 0 0 Z " fill="#F86F18" transform="translate(119,10)"/>
<path d="M0 0 C6.93 0 13.86 0 21 0 C21 0.99 21 1.98 21 3 C18.36 3 15.72 3 13 3 C13 7.95 13 12.9 13 18 C11.35 18 9.7 18 8 18 C8 13.05 8 8.1 8 3 C5.36 3 2.72 3 0 3 C0 2.01 0 1.02 0 0 Z " fill="#F86F18" transform="translate(98,7)"/>
<path d="M0 0 C5.28 0 10.56 0 16 0 C16 0.99 16 1.98 16 3 C12.04 3 8.08 3 4 3 C4 4.32 4 5.64 4 7 C5.98 7 7.96 7 10 7 C10 7.99 10 8.98 10 10 C8.02 10 6.04 10 4 10 C4 11.65 4 13.3 4 15 C2.68 15 1.36 15 0 15 C0 10.05 0 5.1 0 0 Z " fill="#F86F18" transform="translate(227,10)"/>
<path d="M0 0 C5.94 0 11.88 0 18 0 C18 0.99 18 1.98 18 3 C15.69 3 13.38 3 11 3 C11 6.96 11 10.92 11 15 C9.68 15 8.36 15 7 15 C7 11.04 7 7.08 7 3 C4.69 3 2.38 3 0 3 C0 2.01 0 1.02 0 0 Z " fill="#F86F18" transform="translate(245,10)"/>
<path d="M0 0 C1.65 0 3.3 0 5 0 C6.125 2.3125 6.125 2.3125 7 5 C6.01 6.485 6.01 6.485 5 8 C5.33 8.66 5.66 9.32 6 10 C2.20411134 9.45773019 0.52788007 7.79872437 -2 5 C-1.34 3.35 -0.68 1.7 0 0 Z M2 1 C1.67 2.65 1.34 4.3 1 6 C1.99 6 2.98 6 4 6 C3.67 4.35 3.34 2.7 3 1 C2.67 1 2.34 1 2 1 Z " fill="#8E8E8E" transform="translate(61,29)"/>
<path d="M0 0 C2.97 0 5.94 0 9 0 C8.34 1.98 7.68 3.96 7 6 C5.02 6 3.04 6 1 6 C0.67 4.02 0.34 2.04 0 0 Z " fill="#8E8E8E" transform="translate(171,31)"/>
<path d="M0 0 C1.98 0 3.96 0 6 0 C6 2.64 6 5.28 6 8 C4.02 8 2.04 8 0 8 C0 5.36 0 2.72 0 0 Z M2 1 C2 1.99 2 2.98 2 4 C2.66 4 3.32 4 4 4 C4 3.01 4 2.02 4 1 C3.34 1 2.68 1 2 1 Z M2 5 C2 5.66 2 6.32 2 7 C2.66 7 3.32 7 4 7 C4 6.34 4 5.68 4 5 C3.34 5 2.68 5 2 5 Z " fill="#8E8E8E" transform="translate(217,29)"/>
<path d="M0 0 C-0.99 3.3 -1.98 6.6 -3 10 C-3.66 10 -4.32 10 -5 10 C-5.33 9.01 -5.66 8.02 -6 7 C-6.99 6.34 -7.98 5.68 -9 5 C-7.87926138 4.16094435 -6.75325453 3.32892169 -5.625 2.5 C-4.99851562 2.0359375 -4.37203125 1.571875 -3.7265625 1.09375 C-2 0 -2 0 0 0 Z " fill="#F6E6E9" transform="translate(20,28)"/>
<path d="M0 0 C1.65 0 3.3 0 5 0 C5 2.64 5 5.28 5 8 C3.35 8 1.7 8 0 8 C-1.125 2.25 -1.125 2.25 0 0 Z M2 1 C2 2.32 2 3.64 2 5 C2.33 3.68 2.66 2.36 3 1 C2.67 1 2.34 1 2 1 Z " fill="#8E8E8E" transform="translate(242,31)"/>
<path d="M0 0 C1.32 0 2.64 0 4 0 C4 2.66666667 4 5.33333333 4 8 C2.35 7.67 0.7 7.34 -1 7 C-0.34 6.34 0.32 5.68 1 5 C0.34 3.68 -0.32 2.36 -1 1 C-0.67 0.67 -0.34 0.34 0 0 Z " fill="#8E8E8E" transform="translate(113,29)"/>
<path d="M0 0 C2 0 4 0 6 0 C5.34 2.31 4.68 4.62 4 7 C2.68 7.33 1.36 7.66 0 8 C0.33 7.01 0.66 6.02 1 5 C0.60602665 2.36195411 0.60602665 2.36195411 0 0 Z " fill="#8E8E8E" transform="translate(100,31)"/>
<path d="M0 0 C0.66 0 1.32 0 2 0 C2 2.64 2 5.28 2 8 C0.35 8 -1.3 8 -3 8 C-4.125 4.25 -4.125 4.25 -3 2 C-2.01 2 -1.02 2 0 2 C0 1.34 0 0.68 0 0 Z M-1 3 C-1 4.32 -1 5.64 -1 7 C-0.67 5.68 -0.34 4.36 0 3 C-0.33 3 -0.66 3 -1 3 Z " fill="#8E8E8E" transform="translate(237,29)"/>
<path d="M0 0 C0.66 0 1.32 0 2 0 C2 0.66 2 1.32 2 2 C2.99 2 3.98 2 5 2 C5 3.98 5 5.96 5 8 C3.35 8 1.7 8 0 8 C0 5.36 0 2.72 0 0 Z " fill="#8E8E8E" transform="translate(192,29)"/>
<path d="M0 0 C1.32 0 2.64 0 4 0 C4.33 1.98 4.66 3.96 5 6 C3.02 6 1.04 6 -1 6 C-1.042721 4.33388095 -1.04063832 2.66617115 -1 1 C-0.67 0.67 -0.34 0.34 0 0 Z " fill="#8E8E8E" transform="translate(251,31)"/>
<path d="M0 0 C1.32 0 2.64 0 4 0 C4.33 1.98 4.66 3.96 5 6 C3.02 6 1.04 6 -1 6 C-1.042721 4.33388095 -1.04063832 2.66617115 -1 1 C-0.67 0.67 -0.34 0.34 0 0 Z " fill="#8E8E8E" transform="translate(153,31)"/>
<path d="M0 0 C1.66611905 -0.042721 3.33382885 -0.04063832 5 0 C6 1 6 1 6.0625 3.5625 C6.041875 4.366875 6.02125 5.17125 6 6 C5.34 6 4.68 6 4 6 C3.67 5.01 3.34 4.02 3 3 C2.67 3.99 2.34 4.98 2 6 C1.34 6 0.68 6 0 6 C0 4.02 0 2.04 0 0 Z " fill="#8E8E8E" transform="translate(204,31)"/>
<path d="M0 0 C1.65 0 3.3 0 5 0 C5 1.98 5 3.96 5 6 C3.35 6 1.7 6 0 6 C-1 3 -1 3 0 0 Z M2 1 C3 3 3 3 3 3 Z " fill="#8E8E8E" transform="translate(120,31)"/>
<path d="M0 0 C0.66 0 1.32 0 2 0 C2.33 0.99 2.66 1.98 3 3 C3.33 2.01 3.66 1.02 4 0 C4.66 0 5.32 0 6 0 C6 1.98 6 3.96 6 6 C4.33388095 6.042721 2.66617115 6.04063832 1 6 C0 5 0 5 -0.0625 2.4375 C-0.041875 1.633125 -0.02125 0.82875 0 0 Z " fill="#8E8E8E" transform="translate(70,31)"/>
<path d="M0 0 C1.65 0 3.3 0 5 0 C5 1.98 5 3.96 5 6 C3.35 6 1.7 6 0 6 C0 4.02 0 2.04 0 0 Z " fill="#8E8E8E" transform="translate(226,31)"/>
<path d="M0 0 C1.65 0 3.3 0 5 0 C5 1.98 5 3.96 5 6 C3.35 6 1.7 6 0 6 C0 5.01 0 4.02 0 3 C0.99 3 1.98 3 3 3 C2.01 2.67 1.02 2.34 0 2 C0 1.34 0 0.68 0 0 Z " fill="#8E8E8E" transform="translate(78,31)"/>
<path d="M0 0 C1.65 0 3.3 0 5 0 C5 0.66 5 1.32 5 2 C4.34 2 3.68 2 3 2 C3 2.66 3 3.32 3 4 C3.66 4 4.32 4 5 4 C5 4.66 5 5.32 5 6 C3.35 6 1.7 6 0 6 C-1.125 2.25 -1.125 2.25 0 0 Z " fill="#8E8E8E" transform="translate(145,31)"/>
<path d="M0 0 C1.98 0 3.96 0 6 0 C5.67 1.98 5.34 3.96 5 6 C4.01 6 3.02 6 2 6 C1.34 4.02 0.68 2.04 0 0 Z " fill="#8E8E8E" transform="translate(132,31)"/>
<path d="M0 0 C1.32 0 2.64 0 4 0 C4 1.98 4 3.96 4 6 C2.35 5.67 0.7 5.34 -1 5 C-0.67 3.35 -0.34 1.7 0 0 Z " fill="#8E8E8E" transform="translate(160,31)"/>
<path d="M0 0 C0.66 0 1.32 0 2 0 C2 0.66 2 1.32 2 2 C2.66 2.33 3.32 2.66 4 3 C3.34 3 2.68 3 2 3 C2.66 4.32 3.32 5.64 4 7 C2.68 6.67 1.36 6.34 0 6 C0 4.02 0 2.04 0 0 Z " fill="#8E8E8E" transform="translate(186,30)"/>
<path d="M0 0 C0.66 0 1.32 0 2 0 C2.33 2.31 2.66 4.62 3 7 C2.01 7 1.02 7 0 7 C-1.125 2.25 -1.125 2.25 0 0 Z " fill="#8E8E8E" transform="translate(258,30)"/>
<path d="M0 0 C0.66 0 1.32 0 2 0 C2.33 2.31 2.66 4.62 3 7 C2.01 7 1.02 7 0 7 C-1.125 2.25 -1.125 2.25 0 0 Z " fill="#8E8E8E" transform="translate(95,30)"/>
<path d="M0 0 C1.32 0.33 2.64 0.66 4 1 C3.34 2.65 2.68 4.3 2 6 C1.34 6 0.68 6 0 6 C0 4.02 0 2.04 0 0 Z " fill="#8E8E8E" transform="translate(127,31)"/>
<path d="M0 0 C0.66 0 1.32 0 2 0 C2.33 2.64 2.66 5.28 3 8 C2.01 7.67 1.02 7.34 0 7 C0 4.69 0 2.38 0 0 Z " fill="#8E8E8E" transform="translate(85,29)"/>
<path d="M0 0 C0.66 0 1.32 0 2 0 C2 1.98 2 3.96 2 6 C1.34 6 0.68 6 0 6 C0 4.02 0 2.04 0 0 Z " fill="#8E8E8E" transform="translate(200,31)"/>
<path d="M0 0 C0.66 0 1.32 0 2 0 C2 1.98 2 3.96 2 6 C1.34 6 0.68 6 0 6 C0 4.02 0 2.04 0 0 Z " fill="#8E8E8E" transform="translate(182,31)"/>
<path d="M0 0 C0.66 0 1.32 0 2 0 C2 1.98 2 3.96 2 6 C1.34 6 0.68 6 0 6 C0 4.02 0 2.04 0 0 Z " fill="#8E8E8E" transform="translate(140,31)"/>
<path d="M0 0 C0.66 0 1.32 0 2 0 C2 1.98 2 3.96 2 6 C1.34 6 0.68 6 0 6 C0 4.02 0 2.04 0 0 Z " fill="#8E8E8E" transform="translate(90,31)"/>
<path d="M0 0 C2 1 2 1 2 1 Z " fill="#8E8E8E" transform="translate(200,29)"/>
<path d="M0 0 C2 1 2 1 2 1 Z " fill="#8E8E8E" transform="translate(182,29)"/>
<path d="M0 0 C2 1 2 1 2 1 Z " fill="#8E8E8E" transform="translate(140,29)"/>
<path d="M0 0 C2 1 2 1 2 1 Z " fill="#8E8E8E" transform="translate(90,29)"/>
</svg>
